<?xml version="1.0" standalone="no"?>
<!DOCTYPE svg PUBLIC "-//W3C//DTD SVG 20010904//EN"
 "http://www.w3.org/TR/2001/REC-SVG-20010904/DTD/svg10.dtd">
<svg version="1.0" xmlns="http://www.w3.org/2000/svg"
 width="1500.000000pt" height="1500.000000pt" viewBox="0 0 1500.000000 1500.000000"
 preserveAspectRatio="xMidYMid meet">

<g transform="translate(0.000000,1500.000000) scale(0.100000,-0.100000)"
fill="#000000" stroke="none">
<path d="M0 7500 l0 -7500 7500 0 7500 0 0 7500 0 7500 -7500 0 -7500 0 0
-7500z m7595 3111 c17 -11 262 -188 545 -395 283 -206 524 -381 535 -389 20
-14 20 -28 23 -580 1 -337 -1 -574 -7 -589 -6 -17 -191 -158 -555 -424 -300
-219 -554 -401 -564 -405 -12 -5 -32 -1 -51 9 -17 9 -272 194 -567 411 -347
255 -539 402 -545 418 -5 14 -9 264 -9 579 l0 556 23 19 c22 19 980 713 1071
775 56 40 61 40 101 15z m375 -3312 l0 -421 67 62 c116 109 204 152 344 171
198 27 379 -55 452 -205 56 -113 59 -145 64 -613 l5 -431 79 -7 c90 -8 109
-20 109 -71 l0 -34 -159 0 -159 0 -5 483 c-3 322 -8 496 -16 525 -29 110 -88
187 -171 225 -69 32 -217 36 -307 8 -83 -25 -191 -98 -257 -173 l-46 -53 0
-451 0 -452 83 -7 c45 -4 88 -12 95 -17 6 -6 12 -28 12 -49 l0 -39 -260 0
-260 0 0 34 c0 48 22 66 78 66 26 0 64 3 85 6 l37 7 0 873 0 874 -47 0 c-68 1
-134 15 -144 31 -5 8 -9 29 -9 47 l0 32 165 0 165 0 0 -421z m3070 -179 l0
-600 49 0 c61 0 52 -7 330 260 l213 205 -43 8 c-52 10 -69 29 -69 74 l0 33
210 0 210 0 0 -33 c0 -54 -19 -69 -92 -76 l-65 -6 -261 -248 -261 -248 42 -42
c23 -23 156 -167 296 -320 l254 -277 61 0 c34 0 67 -4 74 -9 8 -4 16 -27 19
-50 l6 -41 -102 0 -101 0 -37 35 c-21 19 -157 162 -303 318 -146 156 -279 294
-296 305 -21 16 -45 22 -82 22 l-52 0 0 -284 0 -283 53 -7 c28 -3 66 -6 84 -6
41 0 63 -23 63 -66 l0 -34 -260 0 -260 0 0 38 c0 51 14 62 76 62 28 0 66 3 83
6 l31 7 0 872 0 872 -81 6 c-45 4 -88 12 -95 18 -8 6 -14 29 -14 50 l0 39 160
0 160 0 0 -600z m1546 529 c13 -12 29 -40 36 -60 14 -50 -13 -105 -66 -132
-32 -17 -43 -18 -76 -8 -51 15 -90 62 -90 107 0 46 23 90 58 109 38 21 107 14
138 -16z m-9949 -9 c58 -92 771 -1324 788 -1362 l22 -48 14 32 c13 35 723
1296 765 1361 l24 37 181 0 180 0 -3 -37 c-4 -50 -31 -63 -135 -63 l-83 0 0
-849 0 -848 61 -7 c34 -3 78 -6 98 -6 47 0 61 -14 61 -62 l0 -38 -291 0 -290
0 3 41 c2 24 9 45 18 50 8 4 59 11 113 14 l97 7 0 791 0 792 -21 -35 c-11 -19
-181 -321 -377 -670 -378 -672 -380 -675 -439 -655 -27 10 -100 132 -738 1240
l-75 130 0 -797 0 -796 106 -7 c118 -8 134 -17 134 -71 l0 -34 -295 0 -295 0
0 34 c0 53 17 62 129 70 l101 8 0 849 0 849 -87 0 c-110 0 -137 12 -141 63
l-3 37 183 0 c171 0 184 -1 195 -20z m4513 -545 c41 -8 99 -22 128 -30 l52
-16 0 -166 0 -166 -47 6 c-59 6 -70 22 -78 105 -3 37 -8 88 -11 114 l-6 46
-51 13 c-84 22 -242 17 -307 -9 -110 -43 -171 -124 -172 -225 -1 -63 18 -102
68 -147 45 -39 88 -58 274 -120 244 -81 323 -130 374 -232 43 -85 34 -215 -22
-324 -46 -89 -181 -181 -301 -204 -118 -22 -286 -7 -446 41 l-75 22 0 163 0
164 49 0 c32 0 53 -5 62 -16 7 -8 17 -66 23 -132 l11 -116 55 -17 c134 -41
310 -30 404 25 89 52 146 148 146 245 0 131 -81 196 -350 281 -190 60 -272
101 -329 166 -42 48 -71 121 -71 179 0 48 27 141 53 183 101 159 299 217 567
167z m2870 1 c140 -50 232 -173 261 -346 5 -30 9 -245 9 -477 l0 -423 78 0
c89 0 102 -8 102 -62 l0 -38 -129 0 c-98 0 -131 3 -140 14 -7 8 -17 55 -23
105 l-11 90 -51 -46 c-74 -67 -155 -117 -243 -149 -68 -25 -92 -29 -188 -29
-122 0 -175 14 -253 68 -49 33 -97 101 -114 162 -18 68 -13 164 12 222 25 58
104 139 166 171 122 62 324 108 514 118 58 3 116 7 129 10 l23 5 -4 137 c-6
165 -23 223 -85 292 -64 71 -127 93 -259 88 -93 -3 -107 -6 -175 -40 -41 -21
-101 -58 -134 -83 -65 -49 -76 -53 -99 -29 -40 39 -38 50 12 92 153 127 285
175 462 168 52 -3 115 -12 140 -20z m-4898 -498 c3 -497 3 -504 26 -559 27
-68 90 -143 143 -169 21 -11 70 -25 108 -32 148 -25 292 28 430 158 l81 76 0
458 0 457 -79 5 c-91 5 -111 17 -111 63 l0 32 156 7 c85 3 160 4 165 1 5 -4 9
-252 9 -619 l0 -613 46 -7 c26 -3 63 -6 83 -6 47 0 61 -14 61 -62 l0 -38 -145
0 c-168 0 -165 -2 -165 103 0 36 -3 77 -6 93 l-5 29 -59 -57 c-76 -74 -164
-131 -248 -160 -96 -33 -280 -33 -364 1 -79 31 -160 106 -198 185 -60 121 -62
141 -67 614 l-5 432 -66 0 c-89 0 -116 15 -120 62 l-3 37 98 4 c54 1 128 4
165 5 l67 2 3 -502z m7448 -117 l0 -619 85 -7 c94 -8 115 -22 115 -77 l0 -28
-260 0 -260 0 0 38 c0 51 14 62 76 62 28 0 66 3 83 6 l31 7 0 563 0 564 -67 0
c-93 0 -117 14 -121 68 l-3 42 160 0 161 0 0 -619z"/>
<path d="M7089 10134 c-255 -185 -470 -342 -478 -349 -11 -11 68 -71 464 -354
290 -207 482 -338 489 -333 7 4 220 157 474 341 369 267 460 337 450 347 -10
9 -599 440 -889 650 l-46 33 -464 -335z"/>
<path d="M6540 9178 l1 -453 450 -330 c247 -181 458 -336 469 -344 20 -13 20
-10 20 450 l0 464 -464 333 c-255 182 -467 332 -470 332 -3 0 -6 -204 -6 -452z"/>
<path d="M8088 9298 l-458 -331 0 -464 0 -464 53 38 c29 21 238 173 465 338
l412 300 0 458 c0 251 -3 457 -7 457 -5 0 -214 -149 -465 -332z"/>
<path d="M9986 6389 c-222 -20 -391 -71 -472 -142 -83 -73 -104 -163 -64 -271
47 -124 169 -174 347 -142 129 23 211 67 326 175 l37 35 0 178 0 178 -37 -1
c-21 -1 -82 -6 -137 -10z"/>
</g>
</svg>
